# xmcd
#
# Track frame offsets:
#	150
#	13246
#	27609
#	41463
#	52411
#	66535
#	77090
#	89363
#	101334
#	113528
#	125344
#	139893
#	153582
#	167614
#	179268
#	191780
#	204274
#	218173
#	232321
#	246138
#	260382
#	274618
#	286556
#	300006
#	311193
#
# Disc length: 4317 seconds
#
# Revision: 1
# Processed by: cddbd v1.5.1PL0 Copyright (c) Steve Scherf et al.
# Submitted via: audiograbber 1.82.02
#
DISCID=6610db19
DTITLE=Various Artist - The Dawn Of Doo-Wop, Vol 3, Doo-Wop Dreamin'
DYEAR=1900
DGENRE=Doo-Wop
TTITLE0=Basin Street Boys - Summertime Gal
TTITLE1=Dominoes - I Am With You
TTITLE2=Dominoes - Do Something For Me
TTITLE3=Dominoes - Weeping Willow Blues
TTITLE4=Dozier Boys - She's Gone
TTITLE5=Dreamers - Can't Get You Off My Mind
TTITLE6=Dreamers - These Things I Miss
TTITLE7=Four Blues - As Long As I Live
TTITLE8=Four Blues - Missing You
TTITLE9=Larks - I Don't Believe In Tomorrow
TTITLE10=Mello-Moods - Where Are You
TTITLE11=Melody Masters - Don't You Ever Mind Them
TTITLE12=Three Blazers (Johnny Moore and The) - What Does It Matter
TTITLE13=Rhythm Kings - Christmas Is Coming At Last
TTITLE14=Royal Sons Quintet - Journey's End
TTITLE15=Royals - Give Me One More Chance
TTITLE16=Striders - Cool Saturday Night
TTITLE17=Sultans - You Captured My Heart
TTITLE18=Cardinals - I'll Always Love You
TTITLE19=Cardinals - Shouldn't I Know
TTITLE20=Five Keys - The Glory Of Love
TTITLE21=Five Keys - Too Late Baby
TTITLE22=Five Keys - With A Broken Heart
TTITLE23=Orioles - I'd Rather Have You Under The Moon
TTITLE24=Rivals - Don't Say You're Sorry Again
EXTD=
EXTT0=
EXTT1=
EXTT2=
EXTT3=
EXTT4=
EXTT5=
EXTT6=
EXTT7=
EXTT8=
EXTT9=
EXTT10=
EXTT11=
EXTT12=
EXTT13=
EXTT14=
EXTT15=
EXTT16=
EXTT17=
EXTT18=
EXTT19=
EXTT20=
EXTT21=
EXTT22=
EXTT23=
EXTT24=
PLAYORDER=
